<svg width="21" height="20" viewBox="0 0 21 20" fill="none" xmlns="http://www.w3.org/2000/svg">
    <path d="M18.8999 10.6599C18.7396 10.4774 18.6512 10.2428 18.6512 9.9999C18.6512 9.75699 18.7396 9.52238 18.8999 9.3399L20.1799 7.89989C20.3209 7.74256 20.4085 7.5446 20.4301 7.3344C20.4516 7.12421 20.4061 6.91258 20.2999 6.72989L18.2999 3.2699C18.1948 3.08742 18.0348 2.94277 17.8426 2.85658C17.6505 2.77039 17.4361 2.74705 17.2299 2.7899L15.3499 3.1699C15.1107 3.21932 14.8616 3.17948 14.6498 3.0579C14.4379 2.93631 14.2779 2.74138 14.1999 2.5099L13.5899 0.679895C13.5228 0.481274 13.395 0.30876 13.2245 0.186737C13.0541 0.0647141 12.8495 -0.000646047 12.6399 -0.000104886H8.6399C8.42183 -0.0114869 8.20603 0.0488215 8.02546 0.171609C7.84489 0.294397 7.70948 0.472914 7.6399 0.679895L7.0799 2.5099C7.0019 2.74138 6.84187 2.93631 6.63001 3.0579C6.41815 3.17948 6.16911 3.21932 5.9299 3.1699L3.9999 2.7899C3.80445 2.76228 3.6052 2.79312 3.42724 2.87853C3.24929 2.96395 3.1006 3.10012 2.9999 3.2699L0.999896 6.72989C0.891056 6.91054 0.842118 7.12098 0.860079 7.33112C0.878039 7.54126 0.961979 7.74034 1.0999 7.89989L2.3699 9.3399C2.53022 9.52238 2.61863 9.75699 2.61863 9.9999C2.61863 10.2428 2.53022 10.4774 2.3699 10.6599L1.0999 12.0999C0.961979 12.2595 0.878039 12.4585 0.860079 12.6687C0.842118 12.8788 0.891056 13.0892 0.999896 13.2699L2.9999 16.7299C3.10499 16.9124 3.26502 17.057 3.45715 17.1432C3.64928 17.2294 3.86372 17.2527 4.0699 17.2099L5.9499 16.8299C6.18911 16.7805 6.43815 16.8203 6.65001 16.9419C6.86187 17.0635 7.0219 17.2584 7.0999 17.4899L7.7099 19.3199C7.77948 19.5269 7.91489 19.7054 8.09546 19.8282C8.27603 19.951 8.49183 20.0113 8.7099 19.9999H12.7099C12.9195 20.0004 13.1241 19.9351 13.2945 19.8131C13.465 19.691 13.5928 19.5185 13.6599 19.3199L14.2699 17.4899C14.3479 17.2584 14.5079 17.0635 14.7198 16.9419C14.9316 16.8203 15.1807 16.7805 15.4199 16.8299L17.2999 17.2099C17.5061 17.2527 17.7205 17.2294 17.9126 17.1432C18.1048 17.057 18.2648 16.9124 18.3699 16.7299L20.3699 13.2699C20.4761 13.0872 20.5216 12.8756 20.5001 12.6654C20.4785 12.4552 20.3909 12.2572 20.2499 12.0999L18.8999 10.6599ZM17.4099 11.9999L18.2099 12.8999L16.9299 15.1199L15.7499 14.8799C15.0297 14.7327 14.2805 14.855 13.6445 15.2237C13.0085 15.5924 12.53 16.1817 12.2999 16.8799L11.9199 17.9999H9.3599L8.9999 16.8599C8.76975 16.1617 8.29128 15.5724 7.6553 15.2037C7.01932 14.835 6.27012 14.7127 5.5499 14.8599L4.3699 15.0999L3.0699 12.8899L3.8699 11.9899C4.36185 11.4399 4.63383 10.7278 4.63383 9.98989C4.63383 9.25196 4.36185 8.53992 3.8699 7.98989L3.0699 7.0899L4.3499 4.88989L5.5299 5.1299C6.25012 5.27712 6.99932 5.15478 7.6353 4.78609C8.27128 4.41741 8.74975 3.82805 8.9799 3.1299L9.3599 1.9999H11.9199L12.2999 3.13989C12.53 3.83805 13.0085 4.42741 13.6445 4.79609C14.2805 5.16478 15.0297 5.28712 15.7499 5.13989L16.9299 4.8999L18.2099 7.11989L17.4099 8.0199C16.9235 8.56866 16.6549 9.27658 16.6549 10.0099C16.6549 10.7432 16.9235 11.4511 17.4099 11.9999ZM10.6399 5.9999C9.84877 5.9999 9.07541 6.23449 8.41761 6.67402C7.75982 7.11354 7.24713 7.73826 6.94438 8.46916C6.64163 9.20007 6.56241 10.0043 6.71675 10.7803C6.8711 11.5562 7.25206 12.2689 7.81147 12.8283C8.37088 13.3877 9.08361 13.7687 9.85954 13.923C10.6355 14.0774 11.4397 13.9982 12.1706 13.6954C12.9015 13.3927 13.5262 12.88 13.9658 12.2222C14.4053 11.5644 14.6399 10.791 14.6399 9.9999C14.6399 8.93903 14.2185 7.92161 13.4683 7.17147C12.7182 6.42132 11.7008 5.9999 10.6399 5.9999ZM10.6399 11.9999C10.2443 11.9999 9.85765 11.8826 9.52876 11.6628C9.19986 11.4431 8.94351 11.1307 8.79214 10.7653C8.64076 10.3998 8.60116 9.99768 8.67833 9.60971C8.7555 9.22175 8.94598 8.86539 9.22568 8.58568C9.50539 8.30598 9.86175 8.11549 10.2497 8.03832C10.6377 7.96115 11.0398 8.00076 11.4053 8.15214C11.7707 8.30351 12.0831 8.55986 12.3028 8.88875C12.5226 9.21765 12.6399 9.60433 12.6399 9.9999C12.6399 10.5303 12.4292 11.039 12.0541 11.4141C11.679 11.7892 11.1703 11.9999 10.6399 11.9999Z" fill="black"/>
    </svg>
    